<svg width="210" height="129" viewBox="0 0 210 129" fill="none" xmlns="http://www.w3.org/2000/svg">
<path fill-rule="evenodd" clip-rule="evenodd" d="M30.9154 90.0601L20.9877 80L11.0601 90.0601L1 99.9877L11.0601 109.915L20.9877 119.843H30.9154V109.915H40.8431V99.9877L30.9154 90.0601Z" fill="#1B1D33" stroke="#1B1D33" stroke-width="0.5" stroke-miterlimit="10" stroke-linejoin="round"/>
<path d="M20.9878 80H11.0601V89.9277H20.9878V80Z" fill="#F31A5A" stroke="#1B1D33" stroke-width="0.5" stroke-miterlimit="10" stroke-linejoin="round"/>
<path d="M30.916 90.0601H20.9883V99.9878H30.916V90.0601Z" fill="#F31A5A" stroke="#1B1D33" stroke-width="0.5" stroke-miterlimit="10" stroke-linejoin="round"/>
<path d="M10.9277 90.0601H1V99.9878H10.9277V90.0601Z" fill="#F31A5A" stroke="#1B1D33" stroke-width="0.5" stroke-miterlimit="10" stroke-linejoin="round"/>
<path d="M20.9878 99.9878H11.0601V109.915H20.9878V99.9878Z" fill="#F31A5A" stroke="#1B1D33" stroke-width="0.5" stroke-miterlimit="10" stroke-linejoin="round"/>
<g clip-path="url(#clip0)">
<path fill-rule="evenodd" clip-rule="evenodd" d="M162.831 102.107L171.754 111H180.677V102.107L171.754 93.2144L162.831 102.107Z" fill="#1B1D33" stroke="#1B1D33" stroke-width="0.5" stroke-miterlimit="10" stroke-linejoin="round"/>
<path fill-rule="evenodd" clip-rule="evenodd" d="M162.831 119.786H171.755V111L162.831 102.107L153.908 111L162.831 119.786Z" fill="#1B1D33" stroke="#1B1D33" stroke-width="0.5" stroke-miterlimit="10" stroke-linejoin="round"/>
<path fill-rule="evenodd" clip-rule="evenodd" d="M118.215 119.786L127.138 128.679H136.061H144.984H153.908H162.831V119.786L153.908 111L118.215 119.786Z" fill="#1B1D33" stroke="#1B1D33" stroke-width="0.5" stroke-miterlimit="10" stroke-linejoin="round"/>
<path d="M171.754 93.2144H162.831V102.107H171.754V93.2144Z" fill="#0C78E4" stroke="#1B1D33" stroke-width="0.5" stroke-miterlimit="10" stroke-linejoin="round"/>
<path d="M162.831 102.107H153.908V111H162.831V102.107Z" fill="#0C78E4" stroke="#1B1D33" stroke-width="0.5" stroke-miterlimit="10" stroke-linejoin="round"/>
<path fill-rule="evenodd" clip-rule="evenodd" d="M136.061 111H127.138H118.215V119.786H127.138H136.061H144.984H153.908V111H144.984H136.061Z" fill="#0C78E4" stroke="#1B1D33" stroke-width="0.5" stroke-miterlimit="10" stroke-linejoin="round"/>
</g>
<path d="M189.708 5.6083V1L209.253 18.5115V24.9631V31.4147V37.8664H202.48V44.0876H196.094V51H173.769L158.792 33.2581L164.552 24.9631V18.5115H170.938V12.0599H176.937V5.6083H183.323H189.708Z" fill="#1B1D33"/>
<path fill-rule="evenodd" clip-rule="evenodd" d="M196.49 13.9032V7.45159H190.104V1H183.719H177.333H170.947V7.45159H164.948V13.9032H158.562V20.3548V26.8065V33.2581H164.948V39.4793H170.947V46.3917H190.104V39.4793H196.49V33.2581H203.263V26.8065V20.3548V13.9032H196.49ZM178.378 14.3644H171.926V20.816H178.378V14.3644ZM167.78 26.3459H174.231V32.7975H188.055V26.3459H194.507V32.7975H188.056V39.2491H174.231V32.7975H167.78V26.3459ZM183.447 14.3644H189.899V20.816H183.447V14.3644Z" fill="#FFD028"/>
<path d="M196.49 7.45159H196.615C196.615 7.38256 196.559 7.32659 196.49 7.32659V7.45159ZM196.49 13.9032H196.365C196.365 13.9722 196.421 14.0282 196.49 14.0282V13.9032ZM190.104 7.45159H189.979C189.979 7.52063 190.035 7.57659 190.104 7.57659V7.45159ZM190.104 1H190.229C190.229 0.930964 190.173 0.875 190.104 0.875V1ZM170.947 1V0.875C170.878 0.875 170.822 0.930964 170.822 1H170.947ZM170.947 7.45159V7.57659C171.016 7.57659 171.072 7.52063 171.072 7.45159H170.947ZM164.948 7.45159V7.32659C164.879 7.32659 164.823 7.38256 164.823 7.45159H164.948ZM164.948 13.9032V14.0282C165.017 14.0282 165.073 13.9722 165.073 13.9032H164.948ZM158.562 13.9032V13.7782C158.493 13.7782 158.438 13.8342 158.438 13.9032H158.562ZM158.562 33.2581H158.438C158.438 33.3271 158.493 33.3831 158.562 33.3831V33.2581ZM164.948 33.2581H165.073C165.073 33.189 165.017 33.1331 164.948 33.1331V33.2581ZM164.948 39.4793H164.823C164.823 39.5483 164.879 39.6043 164.948 39.6043V39.4793ZM170.947 39.4793H171.072C171.072 39.4102 171.016 39.3543 170.947 39.3543V39.4793ZM170.947 46.3917H170.822C170.822 46.4607 170.878 46.5167 170.947 46.5167V46.3917ZM190.104 46.3917V46.5167C190.173 46.5167 190.229 46.4607 190.229 46.3917H190.104ZM190.104 39.4793V39.3543C190.035 39.3543 189.979 39.4102 189.979 39.4793H190.104ZM196.49 39.4793V39.6043C196.559 39.6043 196.615 39.5483 196.615 39.4793H196.49ZM196.49 33.2581V33.1331C196.421 33.1331 196.365 33.189 196.365 33.2581H196.49ZM203.263 33.2581V33.3831C203.332 33.3831 203.388 33.3271 203.388 33.2581H203.263ZM203.263 13.9032H203.388C203.388 13.8342 203.332 13.7782 203.263 13.7782V13.9032ZM171.926 14.3644V14.2394C171.857 14.2394 171.801 14.2954 171.801 14.3644H171.926ZM178.378 14.3644H178.503C178.503 14.2954 178.447 14.2394 178.378 14.2394V14.3644ZM171.926 20.816H171.801C171.801 20.8851 171.857 20.941 171.926 20.941V20.816ZM178.378 20.816V20.941C178.447 20.941 178.503 20.8851 178.503 20.816H178.378ZM174.231 26.3459H174.356C174.356 26.2769 174.301 26.2209 174.231 26.2209V26.3459ZM167.78 26.3459V26.2209C167.711 26.2209 167.655 26.2769 167.655 26.3459H167.78ZM174.231 32.7975H174.106C174.106 32.8665 174.162 32.9225 174.231 32.9225V32.7975ZM188.055 32.7975V32.9225C188.124 32.9225 188.18 32.8665 188.18 32.7975H188.055ZM188.055 26.3459V26.2209C187.986 26.2209 187.93 26.2769 187.93 26.3459H188.055ZM194.507 26.3459H194.632C194.632 26.2769 194.576 26.2209 194.507 26.2209V26.3459ZM194.507 32.7975V32.9225C194.576 32.9225 194.632 32.8666 194.632 32.7975H194.507ZM188.056 32.7975V32.6725C187.987 32.6725 187.931 32.7285 187.931 32.7975H188.056ZM188.056 39.2491V39.3741C188.125 39.3741 188.181 39.3181 188.181 39.2491H188.056ZM174.231 39.2491H174.106C174.106 39.3181 174.162 39.3741 174.231 39.3741V39.2491ZM174.231 32.7975H174.356C174.356 32.7285 174.3 32.6725 174.231 32.6725V32.7975ZM167.78 32.7975H167.655C167.655 32.8666 167.711 32.9225 167.78 32.9225V32.7975ZM189.899 14.3644H190.024C190.024 14.2954 189.968 14.2394 189.899 14.2394V14.3644ZM183.447 14.3644V14.2394C183.378 14.2394 183.322 14.2954 183.322 14.3644H183.447ZM189.899 20.816V20.941C189.968 20.941 190.024 20.8851 190.024 20.816H189.899ZM183.447 20.816H183.322C183.322 20.8851 183.378 20.941 183.447 20.941V20.816ZM196.365 7.45159V13.9032H196.615V7.45159H196.365ZM190.104 7.57659H196.49V7.32659H190.104V7.57659ZM189.979 1V7.45159H190.229V1H189.979ZM183.719 1.125H190.104V0.875H183.719V1.125ZM177.333 1.125H183.719V0.875H177.333V1.125ZM170.947 1.125H177.333V0.875H170.947V1.125ZM171.072 7.45159V1H170.822V7.45159H171.072ZM164.948 7.57659H170.947V7.32659H164.948V7.57659ZM165.073 13.9032V7.45159H164.823V13.9032H165.073ZM158.562 14.0282H164.948V13.7782H158.562V14.0282ZM158.688 20.3548V13.9032H158.438V20.3548H158.688ZM158.688 26.8065V20.3548H158.438V26.8065H158.688ZM158.688 33.2581V26.8065H158.438V33.2581H158.688ZM164.948 33.1331H158.562V33.3831H164.948V33.1331ZM165.073 39.4793V33.2581H164.823V39.4793H165.073ZM170.947 39.3543H164.948V39.6043H170.947V39.3543ZM171.072 46.3917V39.4793H170.822V46.3917H171.072ZM190.104 46.2667H170.947V46.5167H190.104V46.2667ZM189.979 39.4793V46.3917H190.229V39.4793H189.979ZM196.49 39.3543H190.104V39.6043H196.49V39.3543ZM196.365 33.2581V39.4793H196.615V33.2581H196.365ZM203.263 33.1331H196.49V33.3831H203.263V33.1331ZM203.138 26.8065V33.2581H203.388V26.8065H203.138ZM203.138 20.3548V26.8065H203.388V20.3548H203.138ZM203.138 13.9032V20.3548H203.388V13.9032H203.138ZM196.49 14.0282H203.263V13.7782H196.49V14.0282ZM171.926 14.4894H178.378V14.2394H171.926V14.4894ZM172.051 20.816V14.3644H171.801V20.816H172.051ZM178.378 20.691H171.926V20.941H178.378V20.691ZM178.253 14.3644V20.816H178.503V14.3644H178.253ZM174.231 26.2209H167.78V26.4709H174.231V26.2209ZM174.356 32.7975V26.3459H174.106V32.7975H174.356ZM188.055 32.6725H174.231V32.9225H188.055V32.6725ZM188.18 32.7975V26.3459H187.93V32.7975H188.18ZM188.055 26.4709H194.507V26.2209H188.055V26.4709ZM194.382 26.3459V32.7975H194.632V26.3459H194.382ZM194.507 32.6725H188.056V32.9225H194.507V32.6725ZM188.181 39.2491V32.7975H187.931V39.2491H188.181ZM174.231 39.3741H188.056V39.1241H174.231V39.3741ZM174.106 32.7975V39.2491H174.356V32.7975H174.106ZM167.78 32.9225H174.231V32.6725H167.78V32.9225ZM167.655 26.3459V32.7975H167.905V26.3459H167.655ZM189.899 14.2394H183.447V14.4894H189.899V14.2394ZM190.024 20.816V14.3644H189.774V20.816H190.024ZM183.447 20.941H189.899V20.691H183.447V20.941ZM183.322 14.3644V20.816H183.572V14.3644H183.322Z" fill="#1B1D33"/>
<defs>
<clipPath id="clip0">
<rect width="63" height="36" fill="white" transform="translate(118 93)"/>
</clipPath>
</defs>
</svg>